<svg xmlns="http://www.w3.org/2000/svg" version="1.1" xmlns:xlink="http://www.w3.org/1999/xlink" xmlns:svgjs="http://svgjs.dev/svgjs" width="767" height="1000" preserveAspectRatio="none" viewBox="0 0 767 1000"><g mask="url(&quot;#SvgjsMask1162&quot;)" fill="none"><rect width="767" height="1000" x="0" y="0" fill="rgba(108, 99, 255, 0)"></rect><path d="M0,423.197C77.776,418.314,125.312,338.497,186.636,290.411C241.491,247.398,312.787,219.474,341.066,155.76C369.258,92.241,340.623,20.943,337.041,-48.459C333.034,-126.094,373.424,-220.933,318.772,-276.217C263.313,-332.318,166.628,-292.168,88.154,-300.224C26.351,-306.569,-34.679,-338.445,-93.533,-318.543C-151.662,-298.886,-178.528,-235.181,-224.474,-194.507C-279.449,-145.841,-366.79,-125.724,-390.025,-56.077C-413.442,14.115,-374.786,89.878,-341.375,155.901C-308.935,220.005,-258.897,270.538,-202.329,314.83C-140.845,362.972,-77.936,428.09,0,423.197" fill="#5b51ff"></path><path d="M767 1309.811C828.7139999999999 1303.708 891.762 1308.359 946.779 1279.741 1004.892 1249.512 1061.6970000000001 1206.374 1084.152 1144.838 1106.152 1084.548 1073.165 1020.817 1064.463 957.231 1055.689 893.115 1073.844 819.715 1032.81 769.674 991.656 719.486 919.136 708.9929999999999 854.678 701.395 797.401 694.643 740.943 707.488 687.415 728.96 637.77 748.874 598.9639999999999 784.168 559.183 819.9259999999999 513.761 860.754 459.906 895.583 438.435 952.759 414.62 1016.176 412.691 1087.709 434.544 1151.828 457.559 1219.357 498.381 1287.092 562.819 1317.713 625.609 1347.551 697.818 1316.653 767 1309.811" fill="#7d75ff"></path></g><defs><mask id="SvgjsMask1162"><rect width="767" height="1000" fill="#ffffff"></rect></mask></defs></svg>