<svg xmlns="http://www.w3.org/2000/svg" version="1.1" xmlns:xlink="http://www.w3.org/1999/xlink" xmlns:svgjs="http://svgjs.dev/svgjs" width="1000" height="1000" preserveAspectRatio="none" viewBox="0 0 1000 1000"><g mask="url(&quot;#SvgjsMask1204&quot;)" fill="none"><rect width="1000" height="1000" x="0" y="0" fill="rgba(108, 99, 255, 0)"></rect><path d="M0,310.218C59.107,306.979,116.542,290.833,166.129,258.501C215.5,226.31,253.574,180.562,279.801,127.781C306.658,73.733,324.475,14.306,317.247,-45.613C309.931,-106.266,277.925,-160.024,239.368,-207.413C199.878,-255.95,156.357,-315.209,93.972,-320.038C31.342,-324.886,-12.097,-260.07,-67.886,-231.199C-110.825,-208.978,-161.371,-203.558,-196.105,-169.926C-232.629,-134.561,-261.98,-88.981,-267.013,-38.391C-271.964,11.375,-236.682,53.763,-223.149,101.909C-206.475,161.229,-223.298,235.322,-178.255,277.37C-133.176,319.451,-61.576,313.592,0,310.218" fill="#5b51ff"></path><path d="M1000 1367.407C1083.779 1370.03 1180.552 1435.1190000000001 1245.897 1382.623 1313.164 1328.583 1253.498 1210.586 1291.58 1133.16 1331.575 1051.844 1467.742 1023.456 1467.124 932.838 1466.531 845.891 1348.7350000000001 812.758 1288.964 749.611 1232.546 690.0070000000001 1204.913 593.3589999999999 1125.65 572.076 1046.41 550.799 966.79 603.4169999999999 895.454 643.95 835.905 677.7860000000001 801.045 737.384 751.498 784.672 695.389 838.2239999999999 604.898 865.374 584.928 940.322 564.895 1015.508 621.697 1087.269 651.748 1159.041 682.85 1233.321 694.7 1326.183 763.804 1367.529 832.763 1408.789 919.679 1364.892 1000 1367.407" fill="#7d75ff"></path></g><defs><mask id="SvgjsMask1204"><rect width="1000" height="1000" fill="#ffffff"></rect></mask></defs></svg>