<svg xmlns="http://www.w3.org/2000/svg" version="1.1" xmlns:xlink="http://www.w3.org/1999/xlink" xmlns:svgjs="http://svgjs.dev/svgjs" width="1920" height="560" preserveAspectRatio="none" viewBox="0 0 1920 560"><g mask="url(&quot;#SvgjsMask1130&quot;)" fill="none"><rect width="1920" height="560" x="0" y="0" fill="rgba(108, 99, 255, 0)"></rect><path d="M0,631.762C115.441,604.507,150.545,453.633,249.542,388.294C346.612,324.226,517.487,364.19,565.741,258.365C614.004,152.521,501.975,41.443,456.526,-65.639C422.634,-145.491,372.501,-211.475,333.448,-288.934C278.444,-398.031,294.145,-569.613,180.201,-613.709C69.487,-656.554,-33.768,-527.526,-138.463,-471.56C-221.316,-427.27,-312.849,-395.094,-369.274,-319.978C-423.815,-247.371,-437.255,-154.44,-444.663,-63.933C-451.708,22.133,-426.044,102.615,-410.823,187.617C-390.006,303.872,-419.007,440.5,-338.811,527.201C-256.895,615.761,-117.408,659.481,0,631.762" fill="#5b51ff"></path><path d="M1920 1094.1979999999999C2017.334 1073.635 2106.808 1034.451 2187.6639999999998 976.494 2265.234 920.892 2317.295 843.7429999999999 2375.224 767.894 2450.429 669.424 2568.202 588.907 2578.011 465.392 2588.143 337.80899999999997 2507.167 220.47199999999998 2426.594 121.03300000000002 2344.15 19.284999999999968 2245.105-87.35000000000002 2115.415-105.52099999999996 1988.683-123.27800000000002 1885.921-10.20799999999997 1763.842 28.173000000000002 1644.97 65.54599999999999 1500.98 33.27800000000002 1408.4569999999999 116.74599999999998 1313.81 202.13099999999997 1280.964 340.123 1276.829 467.526 1272.9270000000001 587.765 1336.298 694.314 1386.161 803.796 1436.078 913.395 1462.446 1049.805 1568.237 1107.354 1673.44 1164.583 1802.824 1118.952 1920 1094.1979999999999" fill="#7d75ff"></path></g><defs><mask id="SvgjsMask1130"><rect width="1920" height="560" fill="#ffffff"></rect></mask></defs></svg>