<svg xmlns="http://www.w3.org/2000/svg" version="1.1" xmlns:xlink="http://www.w3.org/1999/xlink" xmlns:svgjs="http://svgjs.dev/svgjs" width="1440" height="560" preserveAspectRatio="none" viewBox="0 0 1440 560"><g clip-path="url(&quot;#SvgjsClipPath1051&quot;)" fill="none"><circle r="93.335" cx="-73.22" cy="21.62" stroke="#6c63ff" stroke-opacity="1" stroke-width="2"></circle><circle r="93.335" cx="444.62" cy="434.2" stroke="#6c63ff" stroke-opacity="1" stroke-width="2"></circle><circle r="93.335" cx="804.51" cy="719.79" stroke="#6c63ff" stroke-opacity="1" stroke-width="2"></circle><circle r="98.185" cx="142.87" cy="344.24" stroke="#6c63ff" stroke-opacity="1" stroke-width="2"></circle><circle r="70.36" cx="898.68" cy="52.9" stroke="#6c63ff" stroke-opacity="1" stroke-width="2"></circle><circle r="109.45" cx="837.88" cy="92.89" stroke="#6c63ff" stroke-opacity="1" stroke-width="2"></circle><circle r="89.45" cx="15.56" cy="34.33" stroke="#6c63ff" stroke-opacity="1" stroke-width="2"></circle><circle r="172" cx="1017.33" cy="270.02" stroke="#6c63ff" stroke-opacity="1" stroke-width="2"></circle><circle r="61.895" cx="316.76" cy="18.17" stroke="#6c63ff" stroke-opacity="1" stroke-width="2"></circle><circle r="144.995" cx="1430.9" cy="429.22" stroke="#6c63ff" stroke-opacity="1" stroke-width="2"></circle><circle r="135.055" cx="1115.33" cy="469.75" stroke="#6c63ff" stroke-opacity="1" stroke-width="2"></circle><circle r="177.91" cx="1357.71" cy="494.21" stroke="#6c63ff" stroke-opacity="1" stroke-width="2"></circle><circle r="107.695" cx="574.67" cy="157.81" stroke="#6c63ff" stroke-opacity="1" stroke-width="2"></circle><circle r="164.495" cx="24.11" cy="391.64" stroke="#6c63ff" stroke-opacity="1" stroke-width="2"></circle><circle r="181.225" cx="108.32" cy="263.33" stroke="#6c63ff" stroke-opacity="1" stroke-width="2"></circle><circle r="131.5" cx="1183.09" cy="335.03" stroke="#6c63ff" stroke-opacity="1" stroke-width="2"></circle><circle r="171.79" cx="1112.26" cy="288.49" stroke="#6c63ff" stroke-opacity="1" stroke-width="2"></circle><circle r="81.72" cx="806.19" cy="209.28" stroke="#6c63ff" stroke-opacity="1" stroke-width="2"></circle><circle r="98.705" cx="344.81" cy="75.17" stroke="#6c63ff" stroke-opacity="1" stroke-width="2"></circle><circle r="88.885" cx="428.85" cy="358.83" stroke="#6c63ff" stroke-opacity="1" stroke-width="2"></circle><circle r="147.06" cx="133.25" cy="437.19" stroke="#6c63ff" stroke-opacity="1" stroke-width="2"></circle><circle r="158.4" cx="38.46" cy="245.8" stroke="#6c63ff" stroke-opacity="1" stroke-width="2"></circle><circle r="128.385" cx="820.59" cy="85.28" stroke="#6c63ff" stroke-opacity="1" stroke-width="2"></circle><circle r="73.84" cx="1418.49" cy="131.21" stroke="#6c63ff" stroke-opacity="1" stroke-width="2"></circle><circle r="185.88" cx="1074.55" cy="524.04" stroke="#6c63ff" stroke-opacity="1" stroke-width="2"></circle><circle r="174.65" cx="590.41" cy="436.71" stroke="#6c63ff" stroke-opacity="1" stroke-width="2"></circle><circle r="170.535" cx="134.81" cy="56.53" stroke="#6c63ff" stroke-opacity="1" stroke-width="2"></circle><circle r="63.29" cx="7.8" cy="548.62" stroke="#6c63ff" stroke-opacity="1" stroke-width="2"></circle></g><defs><clipPath id="SvgjsClipPath1051"><rect width="1440" height="560" x="0" y="0"></rect></clipPath></defs></svg>