<svg xmlns="http://www.w3.org/2000/svg" version="1.1" xmlns:xlink="http://www.w3.org/1999/xlink" xmlns:svgjs="http://svgjs.dev/svgjs" width="1920" height="1100" preserveAspectRatio="none" viewBox="0 0 1920 1100"><g mask="url(&quot;#SvgjsMask1039&quot;)" fill="none"><path d="M -906.386487563264,562 C -778.39,473.4 -522.39,46.4 -266.38648756326404,119 C -10.39,191.6 117.61,917.2 373.61351243673596,925 C 629.61,932.8 757.61,158.8 1013.613512436736,158 C 1269.61,157.2 1472.34,848.8 1653.613512436736,921 C 1834.89,993.2 1866.72,599.4 1920,519" stroke="rgba(131, 124, 252, 1)" stroke-width="2"></path><path d="M -112.96410099750665,1012 C 15.04,852.8 271.04,253.6 527.0358990024934,216 C 783.04,178.4 911.04,794.6 1167.0358990024934,824 C 1423.04,853.4 1551.04,337 1807.0358990024934,363 C 2063.04,389 2424.44,960.2 2447.0358990024934,954 C 2469.63,947.8 2025.41,456.4 1920,332" stroke="rgba(131, 124, 252, 1)" stroke-width="2"></path><path d="M -434.7280336745962,1006 C -306.73,860.2 -50.73,316.4 205.2719663254038,277 C 461.27,237.6 589.27,768.2 845.2719663254038,809 C 1101.27,849.8 1229.27,431.8 1485.2719663254038,481 C 1741.27,530.2 2038.33,1092.2 2125.271966325404,1055 C 2212.22,1017.8 1961.05,447 1920,295" stroke="rgba(131, 124, 252, 1)" stroke-width="2"></path><path d="M -521.428207107966,1028 C -393.43,898.4 -137.43,460.6 118.57179289203401,380 C 374.57,299.4 502.57,675.8 758.571792892034,625 C 1014.57,574.2 1142.57,124.4 1398.571792892034,126 C 1654.57,127.6 1934.29,614.6 2038.571792892034,633 C 2142.86,651.4 1943.71,301 1920,218" stroke="rgba(131, 124, 252, 1)" stroke-width="2"></path><path d="M -855.2487985843659,1074 C -727.25,961.6 -471.25,531 -215.24879858436591,512 C 40.75,493 168.75,996.4 424.7512014156341,979 C 680.75,961.6 808.75,408.8 1064.7512014156341,425 C 1320.75,441.2 1533.7,1117.6 1704.7512014156341,1060 C 1875.8,1002.4 1876.95,321.6 1920,137" stroke="rgba(131, 124, 252, 1)" stroke-width="2"></path><path d="M -528.5717418337906,321 C -400.57,448.6 -144.57,935.4 111.42825816620942,959 C 367.43,982.6 495.43,497.2 751.4282581662094,439 C 1007.43,380.8 1135.43,650.6 1391.4282581662094,668 C 1647.43,685.4 1925.71,483.4 2031.4282581662094,526 C 2137.14,568.6 1942.29,810 1920,881" stroke="rgba(131, 124, 252, 1)" stroke-width="2"></path><path d="M -570.1665602930584,1077 C -442.17,946.2 -186.17,434.2 69.83343970694165,423 C 325.83,411.8 453.83,1086.4 709.8334397069416,1021 C 965.83,955.6 1093.83,161.4 1349.8334397069416,96 C 1605.83,30.6 1875.8,700 1989.8334397069416,694 C 2103.87,688 1933.97,191.6 1920,66" stroke="rgba(131, 124, 252, 1)" stroke-width="2"></path><path d="M -84.63632598118363,262 C 43.36,421.6 299.36,1083.8 555.3636740188164,1060 C 811.36,1036.2 939.36,177.2 1195.3636740188163,143 C 1451.36,108.8 1579.36,812.4 1835.3636740188163,889 C 2091.36,965.6 2458.44,502.2 2475.3636740188163,526 C 2492.29,549.8 2031.07,911.6 1920,1008" stroke="rgba(131, 124, 252, 1)" stroke-width="2"></path></g><defs><mask id="SvgjsMask1039"><rect width="1920" height="1100" fill="#ffffff"></rect></mask></defs></svg>