<svg xmlns="http://www.w3.org/2000/svg" version="1.1" xmlns:xlink="http://www.w3.org/1999/xlink" xmlns:svgjs="http://svgjs.dev/svgjs" width="1920" height="1100" preserveAspectRatio="none" viewBox="0 0 1920 1100"><g mask="url(&quot;#SvgjsMask1000&quot;)" fill="none"><path d="M -534.2268105370774,747 C -406.23,619.6 -150.23,141.2 105.77318946292252,110 C 361.77,78.8 489.77,559.8 745.7731894629226,591 C 1001.77,622.2 1129.77,220.4 1385.7731894629226,266 C 1641.77,311.6 1918.93,846.2 2025.7731894629226,819 C 2132.62,791.8 1941.15,267.8 1920,130" stroke="rgba(131, 124, 252, 1)" stroke-width="2"></path><path d="M -1210.2711279981002,145 C -1082.27,306.4 -826.27,885.4 -570.2711279981002,952 C -314.27,1018.6 -186.27,497.2 69.72887200189984,478 C 325.73,458.8 453.73,845.6 709.7288720018998,856 C 965.73,866.4 1107.67,536.6 1349.7288720018998,530 C 1591.78,523.4 1805.95,764.4 1920,823" stroke="rgba(131, 124, 252, 1)" stroke-width="2"></path><path d="M -721.186681306607,766 C -593.19,721.6 -337.19,519.4 -81.18668130660708,544 C 174.81,568.6 302.81,963.8 558.813318693393,889 C 814.81,814.2 942.81,214.8 1198.8133186933928,170 C 1454.81,125.2 1694.58,610.2 1838.8133186933928,665 C 1983.05,719.8 1903.76,488.2 1920,444" stroke="rgba(131, 124, 252, 1)" stroke-width="2"></path><path d="M -341.1766528812716,364 C -213.18,442 42.82,728.4 298.8233471187284,754 C 554.82,779.6 682.82,497.4 938.8233471187284,492 C 1194.82,486.6 1322.82,765.6 1578.8233471187284,727 C 1834.82,688.4 2150.59,257.6 2218.8233471187286,299 C 2287.06,340.4 1979.76,807 1920,934" stroke="rgba(131, 124, 252, 1)" stroke-width="2"></path></g><defs><mask id="SvgjsMask1000"><rect width="1920" height="1100" fill="#ffffff"></rect></mask></defs></svg>